<svg width="68" height="68" viewBox="0 0 68 68" fill="none" xmlns="http://www.w3.org/2000/svg">
<g id="In">
<path id="bg" d="M34 1C52.2254 1 67 15.7746 67 34C67 52.2254 52.2254 67 34 67C15.7746 67 1 52.2254 1 34C1 15.7746 15.7746 1 34 1Z" stroke="#ADAEAF" stroke-width="2"/>
<g id="instagram">
<path d="M34 20.3999C38.4 20.3999 39 20.3999 40.8 20.3999C42.4 20.3999 43.2 20.7999 43.8 20.9999C44.6 21.3999 45.2 21.5999 45.8 22.1999C46.4 22.7999 46.8 23.3999 47 24.1999C47.2 24.7999 47.4 25.5999 47.6 27.1999C47.6 28.9999 47.6 29.3999 47.6 33.9999C47.6 38.5999 47.6 38.9999 47.6 40.7999C47.6 42.3999 47.2 43.1999 47 43.7999C46.6 44.5999 46.4 45.1999 45.8 45.7999C45.2 46.3999 44.6 46.7999 43.8 46.9999C43.2 47.1999 42.4 47.3999 40.8 47.5999C39 47.5999 38.6 47.5999 34 47.5999C29.4 47.5999 29 47.5999 27.2 47.5999C25.6 47.5999 24.8 47.1999 24.2 46.9999C23.4 46.5999 22.8 46.3999 22.2 45.7999C21.6 45.1999 21.2 44.5999 21 43.7999C20.8 43.1999 20.6 42.3999 20.4 40.7999C20.4 38.9999 20.4 38.5999 20.4 33.9999C20.4 29.3999 20.4 28.9999 20.4 27.1999C20.4 25.5999 20.8 24.7999 21 24.1999C21.4 23.3999 21.6 22.7999 22.2 22.1999C22.8 21.5999 23.4 21.1999 24.2 20.9999C24.8 20.7999 25.6 20.5999 27.2 20.3999C29 20.3999 29.6 20.3999 34 20.3999ZM34 17.3999C29.4 17.3999 29 17.3999 27.2 17.3999C25.4 17.3999 24.2 17.7999 23.2 18.1999C22.2 18.5999 21.2 19.1999 20.2 20.1999C19.2 21.1999 18.8 21.9999 18.2 23.1999C17.8 24.1999 17.6 25.3999 17.4 27.1999C17.4 28.9999 17.4 29.5999 17.4 33.9999C17.4 38.5999 17.4 38.9999 17.4 40.7999C17.4 42.5999 17.8 43.7999 18.2 44.7999C18.6 45.7999 19.2 46.7999 20.2 47.7999C21.2 48.7999 22 49.1999 23.2 49.7999C24.2 50.1999 25.4 50.3999 27.2 50.5999C29 50.5999 29.6 50.5999 34 50.5999C38.4 50.5999 39 50.5999 40.8 50.5999C42.6 50.5999 43.8 50.1999 44.8 49.7999C45.8 49.3999 46.8 48.7999 47.8 47.7999C48.8 46.7999 49.2 45.9999 49.8 44.7999C50.2 43.7999 50.4 42.5999 50.6 40.7999C50.6 38.9999 50.6 38.3999 50.6 33.9999C50.6 29.5999 50.6 28.9999 50.6 27.1999C50.6 25.3999 50.2 24.1999 49.8 23.1999C49.4 22.1999 48.8 21.1999 47.8 20.1999C46.8 19.1999 46 18.7999 44.8 18.1999C43.8 17.7999 42.6 17.5999 40.8 17.3999C39 17.3999 38.6 17.3999 34 17.3999Z" fill="#ADAEAF"/>
<path d="M34 25.3999C29.2 25.3999 25.4 29.1999 25.4 33.9999C25.4 38.7999 29.2 42.5999 34 42.5999C38.8 42.5999 42.6 38.7999 42.6 33.9999C42.6 29.1999 38.8 25.3999 34 25.3999ZM34 39.5999C31 39.5999 28.4 37.1999 28.4 33.9999C28.4 30.9999 30.8 28.3999 34 28.3999C37 28.3999 39.6 30.7999 39.6 33.9999C39.6 36.9999 37 39.5999 34 39.5999Z" fill="#ADAEAF"/>
<path d="M42.8 27.1999C43.9046 27.1999 44.8 26.3045 44.8 25.1999C44.8 24.0953 43.9046 23.1999 42.8 23.1999C41.6954 23.1999 40.8 24.0953 40.8 25.1999C40.8 26.3045 41.6954 27.1999 42.8 27.1999Z" fill="#ADAEAF"/>
</g>
</g>
</svg>
