<svg width="68" height="68" viewBox="0 0 68 68" fill="none" xmlns="http://www.w3.org/2000/svg">
<g id="Ln">
<path id="bg" d="M34 1C52.2254 1 67 15.7746 67 34C67 52.2254 52.2254 67 34 67C15.7746 67 1 52.2254 1 34C1 15.7746 15.7746 1 34 1Z" stroke="#ADAEAF" stroke-width="2"/>
<path id="linkedin" d="M25.2 50H18.4V28.6H25.2V50ZM21.8 25.6C19.6 25.6 18 24 18 21.8C18 19.6 19.8 18 21.8 18C24 18 25.6 19.6 25.6 21.8C25.6 24 24 25.6 21.8 25.6ZM50 50H43.2V38.4C43.2 35 41.8 34 39.8 34C37.8 34 35.8 35.6 35.8 38.6V50H29V28.6H35.4V31.6C36 30.2 38.4 28 41.8 28C45.6 28 49.6 30.2 49.6 36.8V50H50Z" fill="#ADAEAF"/>
</g>
</svg>
